<svg version="1.1" id="Layer_1" xmlns="http://www.w3.org/2000/svg" xmlns:xlink="http://www.w3.org/1999/xlink" x="0px" y="0px" viewBox="0 0 61.4 90.1" enable-background="new 0 0 61.4 90.1" xml:space="preserve">
<g>
<g>
<path fill="#2eb6d1" d="M23.3,2.3v3.4h-6.9c-0.8,0-1.5,0.7-1.5,1.5v18.4c0,0.8,0.7,1.5,1.5,1.5h28.4c0.8,0,1.5-0.7,1.5-1.5V7.1
			c0-0.8-0.7-1.5-1.5-1.5h-6.9V2.3h-1.5v3.4H24.8V2.3H23.3z M39.7,23.2H21.5v-2h18.2V23.2z M37.9,10.3c1.5,0,2.7,1.2,2.7,2.7
			c0,1.5-1.2,2.7-2.7,2.7c-1.5,0-2.7-1.2-2.7-2.7C35.1,11.5,36.4,10.3,37.9,10.3z M26,13c0,1.5-1.2,2.7-2.7,2.7
			c-1.5,0-2.7-1.2-2.7-2.7c0-1.5,1.2-2.7,2.7-2.7C24.8,10.3,26,11.5,26,13z" id="id_115"></path>
<g>
<rect x="5.2" y="28.8" fill="#10b1d1" width="5.6" height="15.8" id="id_116"></rect>
<rect x="5.2" y="45.8" fill="#0cb0d1" width="5.6" height="15.8" id="id_117"></rect>
<path fill="#2cb6d1" d="M9.9,72v2.1c2.5-0.8,4.3-3.2,4.3-5.9c0-3.5-2.8-6.2-6.2-6.2c-3.5,0-6.2,2.8-6.2,6.2
				c0,2.8,1.8,5.1,4.3,5.9V72c-1.4-0.7-2.3-2.1-2.3-3.8C3.7,65.9,5.6,64,8,64c2.4,0,4.3,1.9,4.3,4.3C12.3,69.9,11.3,71.3,9.9,72z" id="id_118"></path>
</g>
<g>
<rect x="50.5" y="28.8" fill="#11b3d4" width="5.6" height="15.8" id="id_119"></rect>
<rect x="50.5" y="45.8" fill="#0cb3d4" width="5.6" height="15.8" id="id_120"></rect>
<path fill="#27b5d1" d="M55.3,72v2.1c2.5-0.8,4.3-3.2,4.3-5.9c0-3.5-2.8-6.2-6.2-6.2c-3.5,0-6.2,2.8-6.2,6.2
				c0,2.8,1.8,5.1,4.3,5.9V72C50,71.3,49,69.9,49,68.2c0-2.4,1.9-4.3,4.3-4.3c2.4,0,4.3,1.9,4.3,4.3C57.6,69.9,56.7,71.3,55.3,72z" id="id_121"></path>
</g>
<path fill="#22b4d1" d="M13.3,28c-0.8,0-1.5,0.7-1.5,1.5v26.1c0,0.8,0.7,1.5,1.5,1.5h34.6c0.8,0,1.5-0.7,1.5-1.5V29.4
			c0-0.8-0.7-1.5-1.5-1.5H13.3z M42.3,48.3c0,1.2-1,2.2-2.2,2.2h-6.9l4.6-4.6c0.5-0.5,0.5-1.4,0-1.9c-0.5-0.5-1.4-0.5-1.9,0
			l-6.6,6.6H21c-1.2,0-2.2-1-2.2-2.2v-7.6c0-1.2,1-2.2,2.2-2.2h19.1c1.2,0,2.2,1,2.2,2.2V48.3z" id="id_122"></path>
</g>
<g>
<g>
<rect x="19.2" y="58.6" fill="#0cb0d1" width="9.3" height="14.5" id="id_123"></rect>
</g>
<g>
<rect x="19.2" y="74.6" fill="#0bb2d4" width="9.3" height="6.9" id="id_124"></rect>
</g>
<path fill="#19b2d1" d="M16.8,82.4c-1.5,0-2.7,1.4-2.7,3.1c0,1.7,1.2,3.1,2.7,3.1h10.5c1.5,0,2.7-1.4,2.7-3.1
			c0-1.7-1.2-3.1-2.7-3.1H16.8z" id="id_125"></path>
<g>
<rect x="32.9" y="58.6" fill="#11b8d9" width="9.3" height="14.5" id="id_126"></rect>
</g>
<g>
<rect x="32.9" y="74.6" fill="#0db7d9" width="9.3" height="6.9" id="id_127"></rect>
</g>
<path fill="#15b4d4" d="M34.1,82.4c-1.5,0-2.7,1.4-2.7,3.1c0,1.7,1.2,3.1,2.7,3.1h10.5c1.5,0,2.7-1.4,2.7-3.1
			c0-1.7-1.2-3.1-2.7-3.1H34.1z" id="id_128"></path>
</g>
</g>
</svg>